<svg width="166" height="147" viewBox="0 0 166 147" fill="none" xmlns="http://www.w3.org/2000/svg">
<path d="M66.3723 16.8C71.8289 7.34891 74.5572 2.62334 78.1192 1.03745C81.226 -0.345818 84.774 -0.345818 87.8808 1.03745C91.4428 2.62334 94.1711 7.34889 99.6277 16.8L158.171 118.2C163.628 127.651 166.356 132.377 165.948 136.254C165.593 139.637 163.819 142.709 161.068 144.708C157.913 147 152.457 147 141.543 147H24.4567C13.5435 147 8.08688 147 4.9325 144.708C2.18111 142.709 0.407147 139.637 0.051656 136.254C-0.355904 132.377 2.3724 127.651 7.829 118.2L66.3723 16.8Z" fill="#D9D9D9"/>
</svg>
